<svg width="222" height="36" viewBox="0 0 222 36" fill="none" xmlns="http://www.w3.org/2000/svg">
<path d="M14.1975 32.8555C13.525 33.2198 12.8697 33.5732 12.2168 33.9313C12.0901 34.0007 11.9786 34.0313 11.837 33.9567C9.4251 32.686 7.05256 31.348 4.90999 29.6218C3.6385 28.5974 2.48856 27.4476 1.57374 26.0668C0.72427 24.7847 0.213596 23.3749 0.0765453 21.8235C-0.0850036 19.9949 0.0663114 18.1636 0.0227629 16.334C0.00952467 15.7778 0.0207121 15.221 0.0207121 14.6767C0.1248 14.5891 0.228135 14.6183 0.323669 14.6179C1.02755 14.615 1.7317 14.6271 2.43521 14.61C2.69234 14.6038 2.77633 14.6763 2.77471 14.9504C2.76416 16.736 2.75798 18.5218 2.7747 20.3073C2.7849 21.3965 2.92808 22.4699 3.28018 23.5052C3.48445 24.1058 3.4834 24.1089 4.08326 23.9966C6.05588 23.627 7.89563 22.8922 9.61116 21.8297C11.433 20.7014 12.997 19.2767 14.2607 17.5056C14.427 17.2725 14.3998 17.1382 14.2055 16.9774C13.8397 16.6747 13.4776 16.3674 13.1147 16.061C13.0391 15.9972 12.9669 15.9291 12.889 15.7747C14.7371 15.3547 16.5852 14.9347 18.4559 14.5096C18.4559 16.6641 18.4559 18.7959 18.4559 20.9573C18.2476 20.8621 18.1203 20.7029 17.9735 20.5753C17.6357 20.2818 17.3009 19.9836 16.9785 19.6725C16.8009 19.5011 16.6906 19.5325 16.5443 19.7172C15.663 20.8296 14.6836 21.8417 13.6039 22.7516C11.4942 24.5293 9.11196 25.7317 6.4619 26.3792C6.19732 26.4439 5.91051 26.4474 5.65495 26.6223C5.77572 26.8622 5.97983 26.9885 6.15677 27.1375C7.41776 28.1988 8.78893 29.0941 10.1807 29.9576C10.7294 30.298 11.284 30.6285 11.8281 30.9764C11.9872 31.0781 12.1117 31.0844 12.2723 30.9837C12.7655 30.6746 13.2649 30.3757 13.7669 30.0819C13.9188 29.993 13.983 29.8785 13.9819 29.7003C13.9728 28.2871 13.974 26.8739 13.9576 25.4609C13.9546 25.1961 14.0363 25.0118 14.2186 24.8277C15.0438 23.9949 15.855 23.1473 16.6714 22.3052C16.7392 22.2353 16.7979 22.1511 16.9597 22.1117C16.9597 24.0792 16.9597 26.0202 16.9597 27.9902C17.2374 27.9217 17.3885 27.7547 17.5556 27.6248C18.6811 26.7494 19.6837 25.7565 20.3573 24.4558C20.8744 23.4572 21.1463 22.3913 21.1992 21.2612C21.3011 19.0866 21.2388 16.9112 21.237 14.7361C21.237 14.7094 21.2475 14.6826 21.2576 14.6348C22.1608 14.6348 23.0655 14.6348 23.965 14.6348C24.0154 14.7001 23.9966 14.7673 23.9966 14.8305C23.9967 16.8022 24.0046 18.7739 23.9937 20.7456C23.9798 23.2697 23.1785 25.4874 21.5508 27.3885C20.5694 28.5346 19.4169 29.4678 18.2117 30.3404C16.9332 31.266 15.5875 32.0787 14.1975 32.8555Z" fill="#2DD4BF"/>
<path d="M18.5661 9.40054C20.3538 8.20428 22.1254 7.01673 23.9451 5.79703C23.9451 8.13163 23.9451 10.4065 23.9451 12.6836C23.8855 12.74 23.8104 12.7185 23.7406 12.7185C21.4524 12.719 19.1642 12.7166 16.876 12.722C16.6717 12.7225 16.5286 12.663 16.3841 12.5054C15.0534 11.0546 13.7131 9.61324 12.3755 8.16924C12.3381 8.12894 12.2998 8.08956 12.2614 8.0504C12.0002 7.78435 12.0032 7.7874 11.7433 8.07113C10.3825 9.55663 9.01943 11.0398 7.65949 12.5261C7.54922 12.6466 7.43812 12.7215 7.26521 12.7212C4.88699 12.7174 2.50875 12.7204 0.130523 12.721C0.113269 12.721 0.0960124 12.7119 0.0549316 12.7002C0.0549316 10.4033 0.0549316 8.0998 0.0549316 5.73319C0.394051 5.96347 0.690784 6.16527 0.987811 6.36661C2.43234 7.3458 3.87844 8.32254 5.31946 9.30718C5.48334 9.41915 5.57899 9.42765 5.72198 9.26154C7.31797 7.40749 8.92317 5.56189 10.5248 3.71303C11.0096 3.1535 11.491 2.59097 11.9996 2C12.3033 2.34165 12.5956 2.66378 12.8807 2.99257C14.027 4.31462 15.171 5.63888 16.3161 6.96202C16.9756 7.72401 17.6349 8.48614 18.2967 9.24601C18.3639 9.32313 18.4084 9.45023 18.5661 9.40054Z" fill="#2DD4BF"/>
<path d="M47.2074 14.3438C47.1278 13.5994 46.7926 13.0199 46.2017 12.6051C45.6165 12.1903 44.8551 11.983 43.9176 11.983C43.2585 11.983 42.6932 12.0824 42.2216 12.2812C41.75 12.4801 41.3892 12.75 41.1392 13.0909C40.8892 13.4318 40.7614 13.821 40.7557 14.2585C40.7557 14.6222 40.8381 14.9375 41.0028 15.2045C41.1733 15.4716 41.4034 15.6989 41.6932 15.8864C41.983 16.0682 42.304 16.2216 42.6562 16.3466C43.0085 16.4716 43.3636 16.5767 43.7216 16.6619L45.358 17.071C46.017 17.2244 46.6506 17.4318 47.2585 17.6932C47.8722 17.9545 48.4205 18.2841 48.9034 18.6818C49.392 19.0795 49.7784 19.5597 50.0625 20.1222C50.3466 20.6847 50.4886 21.3437 50.4886 22.0994C50.4886 23.1222 50.2273 24.0227 49.7045 24.8011C49.1818 25.5739 48.4261 26.179 47.4375 26.6165C46.4545 27.0483 45.2642 27.2642 43.8665 27.2642C42.5085 27.2642 41.3295 27.054 40.3295 26.6335C39.3352 26.2131 38.5568 25.5994 37.9943 24.7926C37.4375 23.9858 37.1364 23.0028 37.0909 21.8438H40.2017C40.2472 22.4517 40.4347 22.9574 40.7642 23.3608C41.0938 23.7642 41.5227 24.0653 42.0511 24.2642C42.5852 24.4631 43.1818 24.5625 43.8409 24.5625C44.5284 24.5625 45.1307 24.4602 45.6477 24.2557C46.1705 24.0455 46.5795 23.7557 46.875 23.3864C47.1705 23.0114 47.321 22.5739 47.3267 22.0739C47.321 21.6193 47.1875 21.2443 46.9261 20.9489C46.6648 20.6477 46.2983 20.3977 45.8267 20.1989C45.3608 19.9943 44.8153 19.8125 44.1903 19.6534L42.2045 19.142C40.767 18.7727 39.6307 18.2131 38.7955 17.4631C37.9659 16.7074 37.5511 15.7045 37.5511 14.4545C37.5511 13.4261 37.8295 12.5256 38.3864 11.7528C38.9489 10.9801 39.7131 10.3807 40.679 9.95454C41.6449 9.52273 42.7386 9.30682 43.9602 9.30682C45.1989 9.30682 46.2841 9.52273 47.2159 9.95454C48.1534 10.3807 48.8892 10.9744 49.4233 11.7358C49.9574 12.4915 50.233 13.3608 50.25 14.3438H47.2074ZM53.1712 27V13.9091H56.2564V27H53.1712ZM54.7223 12.0511C54.2337 12.0511 53.8132 11.8892 53.4609 11.5653C53.1087 11.2358 52.9325 10.8409 52.9325 10.3807C52.9325 9.91477 53.1087 9.51989 53.4609 9.19602C53.8132 8.86648 54.2337 8.7017 54.7223 8.7017C55.2166 8.7017 55.6371 8.86648 55.9837 9.19602C56.3359 9.51989 56.5121 9.91477 56.5121 10.3807C56.5121 10.8409 56.3359 11.2358 55.9837 11.5653C55.6371 11.8892 55.2166 12.0511 54.7223 12.0511ZM59.429 27V13.9091H62.3778V16.1335H62.5312C62.804 15.3835 63.2557 14.7983 63.8864 14.3778C64.517 13.9517 65.2699 13.7386 66.1449 13.7386C67.0312 13.7386 67.7784 13.9545 68.3864 14.3864C69 14.8125 69.4318 15.3949 69.6818 16.1335H69.8182C70.108 15.4062 70.5966 14.8267 71.2841 14.3949C71.9773 13.9574 72.7983 13.7386 73.7472 13.7386C74.9517 13.7386 75.9347 14.1193 76.696 14.8807C77.4574 15.642 77.8381 16.7528 77.8381 18.2131V27H74.7443V18.6903C74.7443 17.8778 74.5284 17.2841 74.0966 16.9091C73.6648 16.5284 73.1364 16.3381 72.5114 16.3381C71.767 16.3381 71.1847 16.571 70.7642 17.0369C70.3494 17.4972 70.142 18.0966 70.142 18.8352V27H67.1165V18.5625C67.1165 17.8864 66.9119 17.3466 66.5028 16.9432C66.0994 16.5398 65.571 16.3381 64.9176 16.3381C64.4744 16.3381 64.071 16.4517 63.7074 16.679C63.3438 16.9006 63.054 17.2159 62.8381 17.625C62.6222 18.0284 62.5142 18.5 62.5142 19.0398V27H59.429ZM80.968 31.9091V13.9091H84.0021V16.0739H84.1811C84.3402 15.7557 84.5646 15.4176 84.8544 15.0597C85.1442 14.696 85.5362 14.3864 86.0305 14.1307C86.5249 13.8693 87.1555 13.7386 87.9226 13.7386C88.9339 13.7386 89.8459 13.9972 90.6584 14.5142C91.4766 15.0256 92.1243 15.7841 92.6016 16.7898C93.0845 17.7898 93.326 19.017 93.326 20.4716C93.326 21.9091 93.0902 23.1307 92.6186 24.1364C92.147 25.142 91.505 25.9091 90.6925 26.4375C89.88 26.9659 88.9595 27.2301 87.9311 27.2301C87.1811 27.2301 86.5589 27.1051 86.0646 26.8551C85.5703 26.6051 85.1726 26.304 84.8714 25.9517C84.576 25.5937 84.3459 25.2557 84.1811 24.9375H84.0533V31.9091H80.968ZM83.9936 20.4545C83.9936 21.3011 84.1129 22.0426 84.3516 22.679C84.5959 23.3153 84.9453 23.8125 85.3999 24.1705C85.8601 24.5227 86.4169 24.6989 87.0703 24.6989C87.7521 24.6989 88.3232 24.517 88.7834 24.1534C89.2436 23.7841 89.5902 23.2812 89.8232 22.6449C90.0618 22.0028 90.1811 21.2727 90.1811 20.4545C90.1811 19.642 90.0646 18.9205 89.8317 18.2898C89.5987 17.6591 89.2521 17.1648 88.7919 16.8068C88.3317 16.4489 87.7578 16.2699 87.0703 16.2699C86.4112 16.2699 85.8516 16.4432 85.3913 16.7898C84.9311 17.1364 84.5817 17.6222 84.343 18.2472C84.1101 18.8722 83.9936 19.608 83.9936 20.4545ZM99.0533 9.54545V27H95.968V9.54545H99.0533ZM108.021 27.2557C106.709 27.2557 105.575 26.983 104.621 26.4375C103.672 25.8864 102.942 25.108 102.43 24.1023C101.919 23.0909 101.663 21.9006 101.663 20.5312C101.663 19.1847 101.919 18.0028 102.43 16.9858C102.947 15.9631 103.669 15.1676 104.595 14.5994C105.521 14.0256 106.609 13.7386 107.859 13.7386C108.666 13.7386 109.428 13.8693 110.143 14.1307C110.865 14.3864 111.501 14.7841 112.053 15.3239C112.609 15.8636 113.047 16.5511 113.365 17.3864C113.683 18.2159 113.842 19.2045 113.842 20.3523V21.2983H103.112V19.2188H110.885C110.879 18.6278 110.751 18.1023 110.501 17.642C110.251 17.1761 109.902 16.8097 109.453 16.5426C109.01 16.2756 108.493 16.142 107.902 16.142C107.271 16.142 106.717 16.2955 106.24 16.6023C105.763 16.9034 105.391 17.3011 105.124 17.7955C104.862 18.2841 104.729 18.821 104.723 19.4062V21.2216C104.723 21.983 104.862 22.6364 105.141 23.1818C105.419 23.7216 105.808 24.1364 106.308 24.4261C106.808 24.7102 107.393 24.8523 108.064 24.8523C108.513 24.8523 108.919 24.7898 109.283 24.6648C109.646 24.5341 109.962 24.3438 110.229 24.0938C110.496 23.8438 110.697 23.5341 110.834 23.1648L113.714 23.4886C113.533 24.25 113.186 24.9148 112.675 25.483C112.169 26.0455 111.521 26.483 110.732 26.7955C109.942 27.1023 109.038 27.2557 108.021 27.2557Z" fill="#E2E8F0"/>
<path d="M119.751 9.54545V27H116.589V9.54545H119.751ZM126.124 19.3295V27H123.038V13.9091H125.987V16.1335H126.141C126.442 15.4006 126.922 14.8182 127.581 14.3864C128.246 13.9545 129.067 13.7386 130.044 13.7386C130.947 13.7386 131.734 13.9318 132.405 14.3182C133.081 14.7045 133.604 15.2642 133.973 15.9972C134.348 16.7301 134.533 17.6193 134.527 18.6648V27H131.442V19.142C131.442 18.267 131.214 17.5824 130.76 17.0881C130.311 16.5937 129.689 16.3466 128.893 16.3466C128.354 16.3466 127.874 16.4659 127.453 16.7045C127.038 16.9375 126.712 17.2756 126.473 17.7188C126.24 18.1619 126.124 18.6989 126.124 19.3295ZM148.888 13.9091L144.226 27H140.817L136.155 13.9091H139.445L142.453 23.6335H142.589L145.607 13.9091H148.888ZM156.373 27.2557C155.06 27.2557 153.927 26.983 152.972 26.4375C152.023 25.8864 151.293 25.108 150.782 24.1023C150.271 23.0909 150.015 21.9006 150.015 20.5312C150.015 19.1847 150.271 18.0028 150.782 16.9858C151.299 15.9631 152.021 15.1676 152.947 14.5994C153.873 14.0256 154.961 13.7386 156.211 13.7386C157.018 13.7386 157.779 13.8693 158.495 14.1307C159.217 14.3864 159.853 14.7841 160.404 15.3239C160.961 15.8636 161.398 16.5511 161.717 17.3864C162.035 18.2159 162.194 19.2045 162.194 20.3523V21.2983H151.464V19.2188H159.237C159.231 18.6278 159.103 18.1023 158.853 17.642C158.603 17.1761 158.254 16.8097 157.805 16.5426C157.362 16.2756 156.844 16.142 156.254 16.142C155.623 16.142 155.069 16.2955 154.592 16.6023C154.114 16.9034 153.742 17.3011 153.475 17.7955C153.214 18.2841 153.08 18.821 153.075 19.4062V21.2216C153.075 21.983 153.214 22.6364 153.492 23.1818C153.771 23.7216 154.16 24.1364 154.66 24.4261C155.16 24.7102 155.745 24.8523 156.415 24.8523C156.864 24.8523 157.271 24.7898 157.634 24.6648C157.998 24.5341 158.313 24.3438 158.58 24.0938C158.847 23.8438 159.049 23.5341 159.185 23.1648L162.066 23.4886C161.884 24.25 161.538 24.9148 161.026 25.483C160.521 26.0455 159.873 26.483 159.083 26.7955C158.293 27.1023 157.39 27.2557 156.373 27.2557ZM175.151 17.3693L172.338 17.6761C172.259 17.392 172.119 17.125 171.92 16.875C171.727 16.625 171.466 16.4233 171.136 16.2699C170.807 16.1165 170.403 16.0398 169.926 16.0398C169.284 16.0398 168.744 16.179 168.307 16.4574C167.875 16.7358 167.662 17.0966 167.668 17.5398C167.662 17.9205 167.801 18.2301 168.085 18.4688C168.375 18.7074 168.852 18.9034 169.517 19.0568L171.75 19.5341C172.989 19.8011 173.909 20.2244 174.511 20.804C175.119 21.3835 175.426 22.142 175.432 23.0795C175.426 23.9034 175.185 24.6307 174.707 25.2614C174.236 25.8864 173.58 26.375 172.739 26.7273C171.898 27.0795 170.932 27.2557 169.841 27.2557C168.239 27.2557 166.949 26.9205 165.972 26.25C164.994 25.5739 164.412 24.6335 164.224 23.429L167.233 23.1392C167.369 23.7301 167.659 24.1761 168.102 24.4773C168.545 24.7784 169.122 24.929 169.832 24.929C170.565 24.929 171.153 24.7784 171.597 24.4773C172.045 24.1761 172.27 23.804 172.27 23.3608C172.27 22.9858 172.125 22.6761 171.835 22.4318C171.551 22.1875 171.108 22 170.506 21.8693L168.273 21.4006C167.017 21.1392 166.088 20.6989 165.486 20.0795C164.884 19.4545 164.585 18.6648 164.591 17.7102C164.585 16.9034 164.804 16.2045 165.247 15.6136C165.696 15.017 166.318 14.5568 167.114 14.233C167.915 13.9034 168.838 13.7386 169.884 13.7386C171.418 13.7386 172.625 14.0653 173.506 14.7188C174.392 15.3722 174.94 16.2557 175.151 17.3693ZM184.513 13.9091V16.2955H176.987V13.9091H184.513ZM178.845 10.7727H181.93V23.0625C181.93 23.4773 181.993 23.7955 182.118 24.017C182.249 24.233 182.419 24.3807 182.629 24.4602C182.839 24.5398 183.072 24.5795 183.328 24.5795C183.521 24.5795 183.697 24.5653 183.857 24.5369C184.021 24.5085 184.146 24.483 184.232 24.4602L184.751 26.8722C184.587 26.929 184.351 26.9915 184.044 27.0597C183.743 27.1278 183.374 27.1676 182.936 27.179C182.163 27.2017 181.467 27.0852 180.848 26.8295C180.229 26.5682 179.737 26.1648 179.374 25.6193C179.016 25.0739 178.839 24.392 178.845 23.5739V10.7727ZM187.093 27V13.9091H190.178V27H187.093ZM188.644 12.0511C188.156 12.0511 187.735 11.8892 187.383 11.5653C187.031 11.2358 186.854 10.8409 186.854 10.3807C186.854 9.91477 187.031 9.51989 187.383 9.19602C187.735 8.86648 188.156 8.7017 188.644 8.7017C189.138 8.7017 189.559 8.86648 189.906 9.19602C190.258 9.51989 190.434 9.91477 190.434 10.3807C190.434 10.8409 190.258 11.2358 189.906 11.5653C189.559 11.8892 189.138 12.0511 188.644 12.0511ZM196.436 19.3295V27H193.351V13.9091H196.3V16.1335H196.453C196.754 15.4006 197.234 14.8182 197.893 14.3864C198.558 13.9545 199.379 13.7386 200.357 13.7386C201.26 13.7386 202.047 13.9318 202.717 14.3182C203.393 14.7045 203.916 15.2642 204.286 15.9972C204.661 16.7301 204.845 17.6193 204.839 18.6648V27H201.754V19.142C201.754 18.267 201.527 17.5824 201.072 17.0881C200.624 16.5937 200.001 16.3466 199.206 16.3466C198.666 16.3466 198.186 16.4659 197.766 16.7045C197.351 16.9375 197.024 17.2756 196.786 17.7188C196.553 18.1619 196.436 18.6989 196.436 19.3295ZM213.669 32.1818C212.561 32.1818 211.609 32.0313 210.814 31.7301C210.018 31.4347 209.379 31.0369 208.896 30.5369C208.413 30.0369 208.078 29.483 207.891 28.875L210.669 28.2017C210.794 28.4574 210.976 28.7102 211.214 28.9602C211.453 29.2159 211.774 29.4261 212.178 29.5909C212.587 29.7614 213.101 29.8466 213.72 29.8466C214.595 29.8466 215.32 29.6335 215.893 29.2074C216.467 28.7869 216.754 28.0938 216.754 27.1278V24.6477H216.601C216.442 24.9659 216.209 25.2926 215.902 25.6278C215.601 25.9631 215.2 26.2443 214.7 26.4716C214.206 26.6989 213.584 26.8125 212.834 26.8125C211.828 26.8125 210.916 26.5767 210.098 26.1051C209.286 25.6278 208.638 24.9176 208.155 23.9744C207.678 23.0256 207.439 21.8381 207.439 20.4119C207.439 18.9744 207.678 17.7614 208.155 16.7727C208.638 15.7784 209.288 15.0256 210.107 14.5142C210.925 13.9972 211.837 13.7386 212.842 13.7386C213.609 13.7386 214.24 13.8693 214.734 14.1307C215.234 14.3864 215.632 14.696 215.928 15.0597C216.223 15.4176 216.447 15.7557 216.601 16.0739H216.771V13.9091H219.814V27.2131C219.814 28.3324 219.547 29.2585 219.013 29.9915C218.479 30.7244 217.749 31.2727 216.822 31.6364C215.896 32 214.845 32.1818 213.669 32.1818ZM213.695 24.392C214.348 24.392 214.905 24.233 215.365 23.9148C215.825 23.5966 216.175 23.1392 216.413 22.5426C216.652 21.946 216.771 21.2301 216.771 20.3949C216.771 19.571 216.652 18.8494 216.413 18.2301C216.18 17.6108 215.834 17.1307 215.374 16.7898C214.919 16.4432 214.359 16.2699 213.695 16.2699C213.007 16.2699 212.433 16.4489 211.973 16.8068C211.513 17.1648 211.166 17.6562 210.933 18.2812C210.7 18.9006 210.584 19.6051 210.584 20.3949C210.584 21.196 210.7 21.8977 210.933 22.5C211.172 23.0966 211.521 23.5625 211.982 23.8977C212.447 24.2273 213.018 24.392 213.695 24.392Z" fill="#2DD4BF"/>
</svg>
